<mxfile host="app.diagrams.net" modified="2023-09-07T06:57:18.818Z" agent="Mozilla/5.0 (Windows NT 10.0; Win64; x64) AppleWebKit/537.36 (KHTML, like Gecko) Chrome/115.0.0.0 Safari/537.36 OPR/101.0.0.0" etag="_cZyxl1DeZG_m52R6vvs" version="21.7.2" type="device">
  <diagram name="Strona-1" id="JoigvequHiqc3GzbZfUr">
    <mxGraphModel dx="2014" dy="1137" grid="1" gridSize="10" guides="1" tooltips="1" connect="1" arrows="1" fold="1" page="1" pageScale="1" pageWidth="827" pageHeight="1169" math="0" shadow="0">
      <root>
        <mxCell id="0" />
        <mxCell id="1" parent="0" />
        <mxCell id="-vcE2ESTU7nkIOKV11oH-3" value="" style="edgeStyle=orthogonalEdgeStyle;rounded=0;orthogonalLoop=1;jettySize=auto;html=1;startArrow=classic;startFill=1;" parent="1" source="-vcE2ESTU7nkIOKV11oH-1" target="-vcE2ESTU7nkIOKV11oH-2" edge="1">
          <mxGeometry relative="1" as="geometry" />
        </mxCell>
        <mxCell id="-vcE2ESTU7nkIOKV11oH-9" value="" style="edgeStyle=orthogonalEdgeStyle;rounded=0;orthogonalLoop=1;jettySize=auto;html=1;" parent="1" source="-vcE2ESTU7nkIOKV11oH-1" target="-vcE2ESTU7nkIOKV11oH-8" edge="1">
          <mxGeometry relative="1" as="geometry" />
        </mxCell>
        <mxCell id="-vcE2ESTU7nkIOKV11oH-1" value="Modem + GPS" style="whiteSpace=wrap;html=1;aspect=fixed;fillColor=#dae8fc;strokeColor=#6c8ebf;" parent="1" vertex="1">
          <mxGeometry x="290" y="250" width="80" height="80" as="geometry" />
        </mxCell>
        <mxCell id="-vcE2ESTU7nkIOKV11oH-2" value="antena LTE" style="whiteSpace=wrap;html=1;aspect=fixed;fillColor=#d5e8d4;strokeColor=#82b366;" parent="1" vertex="1">
          <mxGeometry x="140" y="190" width="50" height="50" as="geometry" />
        </mxCell>
        <mxCell id="-vcE2ESTU7nkIOKV11oH-5" style="edgeStyle=orthogonalEdgeStyle;rounded=0;orthogonalLoop=1;jettySize=auto;html=1;entryX=0;entryY=0.75;entryDx=0;entryDy=0;" parent="1" source="-vcE2ESTU7nkIOKV11oH-4" target="-vcE2ESTU7nkIOKV11oH-1" edge="1">
          <mxGeometry relative="1" as="geometry">
            <Array as="points">
              <mxPoint x="170" y="310" />
            </Array>
          </mxGeometry>
        </mxCell>
        <mxCell id="-vcE2ESTU7nkIOKV11oH-4" value="Antena GPS" style="whiteSpace=wrap;html=1;aspect=fixed;fillColor=#d5e8d4;strokeColor=#82b366;" parent="1" vertex="1">
          <mxGeometry x="150" y="390" width="50" height="50" as="geometry" />
        </mxCell>
        <mxCell id="-vcE2ESTU7nkIOKV11oH-7" value="" style="edgeStyle=orthogonalEdgeStyle;rounded=0;orthogonalLoop=1;jettySize=auto;html=1;" parent="1" source="-vcE2ESTU7nkIOKV11oH-6" target="-vcE2ESTU7nkIOKV11oH-1" edge="1">
          <mxGeometry relative="1" as="geometry" />
        </mxCell>
        <mxCell id="-vcE2ESTU7nkIOKV11oH-6" value="Bateria" style="whiteSpace=wrap;html=1;aspect=fixed;fillColor=#d5e8d4;strokeColor=#82b366;" parent="1" vertex="1">
          <mxGeometry x="290" y="390" width="50" height="50" as="geometry" />
        </mxCell>
        <mxCell id="-vcE2ESTU7nkIOKV11oH-11" value="" style="edgeStyle=orthogonalEdgeStyle;rounded=0;orthogonalLoop=1;jettySize=auto;html=1;" parent="1" source="-vcE2ESTU7nkIOKV11oH-8" target="-vcE2ESTU7nkIOKV11oH-10" edge="1">
          <mxGeometry relative="1" as="geometry" />
        </mxCell>
        <mxCell id="-vcE2ESTU7nkIOKV11oH-8" value="Plik baza danych, zawiera współrzędne GPS" style="whiteSpace=wrap;html=1;aspect=fixed;fillColor=#dae8fc;strokeColor=#6c8ebf;" parent="1" vertex="1">
          <mxGeometry x="490" y="250" width="80" height="80" as="geometry" />
        </mxCell>
        <mxCell id="-vcE2ESTU7nkIOKV11oH-10" value="Strona www, pokazująca mape" style="whiteSpace=wrap;html=1;aspect=fixed;fillColor=#dae8fc;strokeColor=#6c8ebf;" parent="1" vertex="1">
          <mxGeometry x="720" y="250" width="80" height="80" as="geometry" />
        </mxCell>
      </root>
    </mxGraphModel>
  </diagram>
</mxfile>
